<svg width="128" height="128" viewBox="0 0 128 128" fill="none" xmlns="http://www.w3.org/2000/svg">
<path d="M21.9766 12C16.4492 12 12 16.4609 12 22V108.031C12 113.574 16.4492 118.031 21.9766 118.031H106.02C111.551 118.031 116 113.574 116 108.031V35.9453C116 29.3164 110.641 23.9453 104.027 23.9453H58C55.5469 23.9453 53.3047 22.5586 52.2031 20.3633L50.6992 17.3711C49.043 14.0781 45.6797 12 42 12H21.9766Z" fill="#438DE6"/>
<path d="M65.9766 36C63.2305 36 60.75 37.1016 58.9492 38.8906C56.6758 41.1445 53.5664 44 50.3164 44H21.9766C16.4492 44 12 48.4609 12 54V108.031C12 113.574 16.4492 118.031 21.9766 118.031H106.02C111.551 118.031 116 113.574 116 108.031V46C116 40.4609 111.551 36 106.02 36H65.9766Z" fill="url(#paint0_linear_2_9)"/>
<path d="M65.9766 32C63.2305 32 60.75 33.1016 58.9492 34.8906C56.6758 37.1445 53.5664 40 50.3164 40H21.9766C16.4492 40 12 44.4609 12 50V105.977C12 111.516 16.4492 115.977 21.9766 115.977H106.02C111.551 115.977 116 111.516 116 105.977V42C116 36.4609 111.551 32 106.02 32H65.9766Z" fill="#A4CAEE"/>
<path d="M69.6667 91C69.6667 91 69.6667 87.4621 69.6667 86.3333C69.6667 85.3601 69.901 83.2813 68.8888 82.4445C71.049 82.2499 72.7514 81.5388 74.3333 80.1112C75.9154 78.6834 76.6667 76.5139 76.6667 73.1112C76.6667 70.7778 76.2778 69.2222 75.1112 67.6667C75.5564 66.4521 75.646 64.5555 75.1112 63C72.6805 63 70.484 64.6717 69.6667 65.3333C69.0634 65.1776 67.5951 64.5555 65 64.5555C62.4049 64.5555 60.9366 65.1776 60.3333 65.3333C59.516 64.6717 57.3195 63 54.8888 63C54.3542 64.5555 54.4436 66.4521 54.8888 67.6667C53.7222 69.2222 53.3333 70.7778 53.3333 73.1112C53.3333 76.5139 54.0848 78.6834 55.6667 80.1112C57.2486 81.5388 58.951 82.2499 61.1112 82.4445C60.0992 83.2813 60.3333 85.3601 60.3333 86.3333C60.3333 87.4621 60.3333 91 60.3333 91" stroke="#438DE6" stroke-width="4" stroke-linecap="round" stroke-linejoin="round"/>
<path d="M60.3333 87.8888C58.1458 87.8888 55.9097 87.0139 54.5973 86.0416C53.2847 85.0694 52.8959 83.4652 51 82.4445" stroke="#438DE6" stroke-width="4" stroke-linecap="round" stroke-linejoin="round"/>
<defs>
<linearGradient id="paint0_linear_2_9" x1="11.9998" y1="112" x2="116" y2="112" gradientUnits="userSpaceOnUse">
<stop stop-color="#62A0EA"/>
<stop offset="0.0576991" stop-color="#AFD4FF"/>
<stop offset="0.122204" stop-color="#62A0EA"/>
<stop offset="0.873306" stop-color="#62A0EA"/>
<stop offset="0.955997" stop-color="#C0D5EA"/>
<stop offset="1" stop-color="#62A0EA"/>
</linearGradient>
</defs>
</svg>
